<svg version="1.1" id="Layer_1" xmlns="http://www.w3.org/2000/svg" xmlns:xlink="http://www.w3.org/1999/xlink" x="0px" y="0px"
	 width="100%" viewBox="0 0 1024 1024" enable-background="new 0 0 1024 1024" xml:space="preserve">
<path fill="#000000" opacity="1.000000" stroke="none" 
	d="
M693.024414,689.079102 
	C652.385559,719.057617 607.233032,736.959290 557.733093,744.476929 
	C510.091919,751.712280 463.385498,747.809753 417.870422,732.418274 
	C351.819672,710.082458 298.996613,669.912476 259.096649,612.630981 
	C236.622711,580.366699 220.615753,545.316956 212.418427,506.865265 
	C206.562103,479.394714 204.393051,451.625244 206.534332,423.492310 
	C208.910095,392.279144 214.904770,361.929657 225.975983,332.622955 
	C239.543228,296.709015 259.051147,264.320770 284.204437,235.370117 
	C328.736969,184.114532 384.001099,150.549088 450.093811,134.639725 
	C477.537964,128.033539 505.334442,126.061775 533.292603,127.904099 
	C560.614380,129.704483 587.176819,135.905029 612.932678,145.413803 
	C696.498230,176.265289 754.904968,233.872589 792.256165,313.876251 
	C806.036316,343.392548 814.374878,374.546021 818.049622,406.786865 
	C826.737610,483.012909 809.638916,552.896057 765.154114,615.775940 
	C745.157959,644.040710 721.264160,668.438965 693.024414,689.079102 
M610.843689,412.362244 
	C629.839783,386.230774 637.168640,356.908173 631.219910,325.394897 
	C620.490784,268.557800 574.813477,229.442322 515.480042,227.513412 
	C493.631500,226.803101 472.763916,232.027328 453.692902,242.831284 
	C417.410797,263.385529 397.467255,295.062439 393.577057,336.233521 
	C391.093781,362.514862 397.459076,387.120575 412.955536,408.998199 
	C430.777344,434.158783 453.554199,451.823181 484.650696,457.277588 
	C488.672638,457.983063 491.085022,456.527374 492.674255,453.125244 
	C494.781036,448.615143 495.044556,443.782532 494.706085,438.937988 
	C494.254791,432.478943 487.407532,424.018066 481.385101,421.972595 
	C472.969116,419.114227 465.184143,415.058624 458.093292,409.644562 
	C424.551605,384.034515 412.399628,339.146973 434.617218,300.967041 
	C449.560455,275.287720 472.451813,260.893799 502.084778,257.541687 
	C531.678223,254.194031 557.478516,262.362946 578.510803,283.705261 
	C604.643677,310.223297 610.139160,351.352936 591.790588,382.337280 
	C580.429626,401.521942 564.119446,414.940826 542.993774,422.364258 
	C541.289124,422.963257 539.315491,423.170227 538.127808,424.725922 
	C532.424988,432.195862 529.475586,440.405060 531.761353,449.888794 
	C533.448242,456.887726 536.212280,458.616760 543.291260,457.246277 
	C545.572266,456.804626 547.877808,456.436066 550.113098,455.819855 
	C575.412659,448.845032 594.890381,433.664490 610.843689,412.362244 
M527.127319,552.706970 
	C528.005066,551.491089 528.790649,550.194458 529.774292,549.071289 
	C547.441345,528.898865 566.747009,513.301880 595.983215,525.370483 
	C598.531982,526.422607 599.727173,525.115051 599.752686,522.500916 
	C599.798340,517.828430 599.574463,513.179749 598.662354,508.583954 
	C595.562256,492.963623 587.546265,480.983032 572.145813,475.558624 
	C557.111328,470.263062 542.586060,471.305939 529.983398,482.316650 
	C523.851440,487.674011 519.705566,494.470795 516.558289,501.935913 
	C515.579041,504.258575 515.087524,506.943665 512.404663,509.042206 
	C510.300507,502.190155 506.866241,496.521301 503.248718,490.961639 
	C486.826874,465.723267 448.016815,466.724670 432.826385,492.722870 
	C427.444641,501.933685 426.163025,512.141968 425.431335,522.455017 
	C425.135620,526.623413 426.600311,527.378296 430.720764,525.302734 
	C443.154205,519.039673 455.571045,519.764893 467.723877,525.684692 
	C487.564545,535.349365 500.597870,551.232422 508.596802,571.565491 
	C509.627502,574.185486 509.703278,577.490295 513.700317,579.667175 
	C517.182922,570.229370 521.059937,561.282654 527.127319,552.706970 
M729.374084,427.878143 
	C730.855042,425.666473 732.482361,423.537964 733.793823,421.229980 
	C744.470398,402.440674 750.730225,382.441986 751.922852,360.678040 
	C753.027039,340.527496 751.317017,320.807465 745.376709,301.596161 
	C732.967590,261.464264 708.143372,230.268494 674.830994,205.418625 
	C670.986206,202.550507 667.268860,199.257126 661.790771,198.626724 
	C663.939941,201.692276 667.109558,203.683212 669.591492,206.321213 
	C678.264099,215.539413 686.687988,225.028488 693.443542,235.770660 
	C710.642273,263.118866 717.191467,293.666077 719.207458,325.352112 
	C720.158020,340.291779 719.297607,355.267029 716.325073,370.027863 
	C711.027832,396.332458 704.332458,422.186523 692.319946,446.395233 
	C688.858215,453.371704 684.199463,459.621765 680.853760,466.905762 
	C700.834961,459.003754 716.042419,445.184296 729.374084,427.878143 
M322.373230,254.969391 
	C330.745636,235.127228 344.098785,218.861938 359.131622,203.806107 
	C360.915649,202.019333 362.846222,200.353348 364.450897,197.113785 
	C362.806519,197.899414 362.180481,198.127426 361.627808,198.472809 
	C336.919525,213.913422 317.118134,234.366333 301.105896,258.512451 
	C276.999512,294.864288 269.308533,334.926697 276.390167,377.617432 
	C282.905884,416.896576 304.453613,445.952698 339.426910,464.998016 
	C340.904602,465.802704 342.397888,467.409027 344.379089,465.949402 
	C345.036102,463.756836 343.362610,462.510345 342.427277,461.036285 
	C337.876312,453.864197 333.278381,446.711578 329.894043,438.893707 
	C318.320557,412.158783 311.036194,384.166992 307.826630,355.331787 
	C304.010498,321.047119 308.610260,287.641083 322.373230,254.969391 
M555.964966,400.460602 
	C558.716125,397.724884 560.728638,394.479828 562.436157,391.030243 
	C575.314758,365.011749 563.754700,332.903595 536.996155,319.389709 
	C514.098511,307.825653 488.966583,314.902283 473.797760,330.618500 
	C463.797821,340.979340 458.824036,353.567047 458.634399,367.583862 
	C458.434540,382.360504 462.455841,395.956940 475.208893,405.344849 
	C476.437012,406.248871 477.742188,407.992584 479.565277,406.550964 
	C480.938751,405.464813 480.576355,403.894958 480.121307,402.394073 
	C477.307556,393.112823 478.771149,383.904602 480.949310,374.811310 
	C484.223846,361.140747 496.555725,351.257751 510.580841,350.689178 
	C526.944153,350.025818 539.471680,357.784912 543.903931,372.214722 
	C546.827698,381.733307 548.725891,391.574921 545.909790,401.600281 
	C545.452759,403.227112 544.777832,404.984009 546.505798,406.142029 
	C548.271545,407.325317 549.674622,405.821960 550.954163,404.888611 
	C552.559448,403.717560 553.978760,402.291504 555.964966,400.460602 
M745.106689,420.462158 
	C743.615967,423.060791 742.145569,425.671295 740.631287,428.256104 
	C732.059814,442.887268 719.218323,453.520264 707.049316,464.923431 
	C673.260193,496.585938 639.995300,528.816101 602.555481,556.288818 
	C600.185303,558.027954 599.235474,560.122925 599.267029,563.079590 
	C599.355835,571.408936 599.173767,579.740967 599.138916,588.072083 
	C599.132263,589.662842 598.733948,591.499878 600.929993,592.280640 
	C603.197144,591.533875 604.023010,589.345581 605.260986,587.684753 
	C616.609924,572.459290 627.821228,557.131409 639.163574,541.901001 
	C653.194519,523.060364 669.458191,506.520264 689.039185,493.335144 
	C700.336914,485.727661 713.083557,481.179901 725.301453,475.515656 
	C737.934631,469.658936 747.655396,460.895508 754.727966,448.773285 
	C765.249573,430.739410 767.842773,410.992920 768.672852,390.715332 
	C769.117249,379.860962 766.752747,369.195129 766.735291,358.387268 
	C766.732178,356.468384 765.557922,353.530121 768.728271,353.036285 
	C771.797546,352.558167 772.459412,355.491882 773.153076,357.579407 
	C775.629333,365.031586 776.839172,372.768494 777.287170,380.577698 
	C778.413086,400.204865 776.050720,419.415009 769.951477,438.143097 
	C769.365356,439.942627 768.449524,441.868378 769.823975,443.805298 
	C787.223877,430.727997 790.628845,371.398926 774.137939,341.788971 
	C768.483276,342.461365 763.009583,347.956085 762.384094,353.576477 
	C762.053406,356.547455 761.645874,359.511108 761.375977,362.487396 
	C759.555542,382.563721 754.825806,401.824615 745.106689,420.462158 
M586.901733,325.553375 
	C586.568115,324.440826 586.285034,323.310150 585.893433,322.218384 
	C575.539001,293.350586 543.062256,267.737030 504.032562,272.251129 
	C468.939911,276.309845 431.955811,306.960541 437.474182,353.345276 
	C437.946594,357.316376 438.398804,361.611481 442.154419,364.115845 
	C443.845551,363.758698 444.052399,362.494446 444.651825,361.528229 
	C447.864380,356.349762 449.048981,350.415405 450.803040,344.723267 
	C465.906311,295.712402 524.882629,285.118073 556.380981,314.837067 
	C568.772888,326.528870 575.942688,341.165588 578.247009,358.066467 
	C578.591675,360.594360 579.547913,362.156555 581.949219,362.669739 
	C584.221252,363.155365 585.793213,361.980316 586.834290,360.055511 
	C587.622986,358.597351 588.216919,357.096069 588.540405,355.412292 
	C590.427063,345.589630 589.874146,335.912140 586.901733,325.553375 
M369.335938,512.189087 
	C364.070831,507.339111 358.760529,502.537109 353.549561,497.629639 
	C340.943298,485.757507 329.020447,473.060822 315.673401,462.094635 
	C287.062622,438.587433 271.490326,408.098602 265.498383,372.303345 
	C264.608459,366.987000 262.491089,367.184845 258.840393,367.104858 
	C257.006042,382.840210 256.894623,398.243225 259.290009,413.582825 
	C264.082794,444.274628 278.009613,467.959045 308.967438,479.001801 
	C335.558990,488.487122 356.627380,505.865417 374.801758,526.998047 
	C391.331207,546.218018 405.058105,567.555054 420.308289,587.743286 
	C421.647644,589.516296 422.408417,591.988831 425.110840,592.271179 
	C427.252258,591.027283 426.703400,589.024170 426.709808,587.285950 
	C426.737457,579.790894 426.567474,572.293701 426.696777,564.801147 
	C426.763550,560.934387 425.296356,558.211548 422.229889,555.903687 
	C404.126434,542.279053 387.148529,527.284119 369.335938,512.189087 
M560.655457,672.885986 
	C545.469482,662.632568 529.859680,653.056152 513.919067,644.034729 
	C477.688629,623.530640 438.576263,612.168457 397.194214,609.625183 
	C372.815155,608.126892 348.285828,608.100525 323.962097,612.086853 
	C318.757568,612.939880 313.331299,614.604126 307.879547,612.573608 
	C307.890167,610.292297 310.728210,609.722778 309.976379,606.718079 
	C300.342499,605.023132 290.699921,601.836243 281.244080,597.434082 
	C281.032532,599.982300 282.232086,601.236328 283.298309,602.445068 
	C288.095978,607.884216 293.661316,612.207031 300.524048,614.898315 
	C310.729736,618.900574 321.217072,620.796692 332.190338,620.730286 
	C357.455322,620.577393 382.691711,618.395508 407.993683,621.448792 
	C436.319427,624.866882 463.440277,632.300964 489.498413,643.619751 
	C515.470032,654.900940 538.793396,670.594666 561.005249,688.012817 
	C570.330750,695.325745 579.916077,702.210388 591.182983,706.356995 
	C599.598572,709.454163 613.630249,706.804749 619.317078,700.035767 
	C597.084656,696.522949 578.859497,685.539795 560.655457,672.885986 
M449.733032,651.572571 
	C466.228088,656.532227 481.787750,663.656006 496.838348,671.952332 
	C518.362122,683.816895 538.058228,698.342834 556.654236,714.276550 
	C562.470276,719.259949 567.898071,719.595764 574.351135,717.421265 
	C575.886230,716.903931 577.913269,716.704773 578.378540,714.869446 
	C578.955322,712.594055 576.777039,711.783020 575.371277,710.777466 
	C568.195923,705.645325 560.689087,700.940308 553.784912,695.471375 
	C513.573608,663.619263 469.149872,640.964417 418.025970,632.899475 
	C399.937683,630.046021 381.783051,628.780945 363.385712,629.955200 
	C347.165344,630.990479 330.857819,632.596924 314.577362,629.583984 
	C311.572845,629.028015 308.279205,627.469177 304.339264,629.139282 
	C308.742493,635.570129 314.444000,640.038086 320.142426,644.496338 
	C322.655975,646.462952 325.293274,646.923706 328.536072,645.906738 
	C333.805481,644.254333 339.323578,643.825867 344.824005,644.647156 
	C353.641174,645.963501 362.290375,647.816467 371.418457,646.564209 
	C397.537659,642.981018 423.485748,643.759399 449.733032,651.572571 
M661.498169,609.091980 
	C626.109558,608.135193 591.429016,612.427429 557.607910,623.098999 
	C548.243835,626.053589 538.845337,628.916077 529.897766,633.024658 
	C527.798035,633.988770 525.105591,634.916077 527.093750,638.050598 
	C529.241699,641.436951 535.658020,643.139038 539.602600,641.602966 
	C553.880859,636.042358 568.350403,631.133911 583.345581,627.797241 
	C607.137817,622.503052 631.167725,618.958252 655.553467,619.953186 
	C670.545654,620.564819 685.537537,621.146973 700.491760,620.506531 
	C714.503235,619.906494 727.734009,616.001587 738.564941,606.369202 
	C740.533875,604.618164 743.166809,603.112244 743.363403,599.643433 
	C742.481140,599.546814 741.766113,599.247253 741.233948,599.443481 
	C733.256531,602.385559 725.101013,604.690491 716.790405,606.468384 
	C715.783447,606.683716 714.613464,607.176331 714.551758,608.205994 
	C714.184875,614.333557 709.971252,613.150940 706.226807,612.627197 
	C691.717224,610.597717 677.178955,608.982788 661.498169,609.091980 
M563.571350,643.182251 
	C559.670105,644.618652 555.669006,645.835876 551.897217,647.556152 
	C548.465393,649.121399 548.369995,651.444275 551.456726,653.454895 
	C555.302734,655.960144 558.887695,657.145996 563.963074,655.242676 
	C581.971130,648.489502 600.704407,644.923279 620.018494,644.650879 
	C632.353455,644.476990 644.645447,645.253174 656.839722,646.829651 
	C661.733459,647.462341 666.455566,647.950134 671.096985,646.480957 
	C678.962402,643.991455 686.983582,643.660950 694.724670,645.857605 
	C701.732788,647.846252 706.644226,645.510742 711.273376,640.864929 
	C713.388550,638.742188 715.684692,636.796021 717.745300,634.624146 
	C719.054749,633.244019 720.770386,631.909363 720.189026,629.595154 
	C718.898804,628.192749 717.435730,628.593018 715.942749,628.850830 
	C705.581970,630.639709 695.133667,631.538208 684.631287,631.161377 
	C673.497131,630.761902 662.375671,629.523376 651.248230,629.517700 
	C621.615784,629.502563 592.601807,633.937439 563.571350,643.182251 
M525.087830,702.443115 
	C515.536438,695.779236 505.999969,689.114319 495.970703,683.148193 
	C463.563873,663.870422 429.215393,651.844177 390.872223,654.300415 
	C388.888275,654.427490 386.558197,653.612671 384.663391,656.248901 
	C392.492645,661.271057 400.953064,663.818359 409.633331,664.510803 
	C426.199799,665.832458 442.011353,669.337341 457.247437,676.153503 
	C480.727051,686.657532 501.306305,701.542725 521.323730,717.331604 
	C526.715088,721.584106 531.867310,725.469543 539.308594,722.812256 
	C540.960144,722.222473 543.116333,722.793701 543.714844,720.426514 
	C544.241638,718.342712 543.063171,716.867310 541.611450,715.685303 
	C536.323975,711.380371 530.978455,707.146606 525.087830,702.443115 
M786.709717,504.200500 
	C796.696594,483.219360 798.889709,453.427887 794.336609,445.584473 
	C792.957153,446.759735 792.840820,448.485199 792.329407,450.028046 
	C789.820007,457.598267 787.493774,465.235138 784.766418,472.726044 
	C776.702148,494.875305 763.454407,512.888062 742.468811,524.473633 
	C732.571777,529.937561 722.509277,535.101196 712.577820,540.503906 
	C709.936646,541.940735 706.838867,542.857483 705.051575,545.639648 
	C706.463806,547.211426 708.069580,546.677185 709.467041,546.619202 
	C715.436951,546.371155 721.411987,546.114502 727.364807,545.617126 
	C738.927856,544.650879 749.898254,541.897095 759.788635,535.368652 
	C771.514709,527.628540 779.889771,517.100159 786.709717,504.200500 
M273.097260,517.461304 
	C250.090347,499.016296 240.137054,472.931824 232.358292,445.436035 
	C229.794662,447.194580 230.344788,448.834320 230.297440,450.241943 
	C229.944931,460.723511 230.121231,471.153229 232.347687,481.492310 
	C237.917648,507.357819 250.128052,528.273193 275.070923,539.979919 
	C287.653748,545.885559 301.334259,545.065552 314.624817,546.611206 
	C316.441895,546.822510 318.585846,547.631226 321.041229,545.140869 
	C305.280273,535.583923 288.315094,528.672058 273.097260,517.461304 
M765.391113,567.897705 
	C772.288757,558.239868 776.667725,547.501465 779.958496,535.978577 
	C776.543823,535.475708 775.217773,537.568909 773.667480,538.842957 
	C764.857483,546.083191 753.757324,549.834778 745.070923,557.010498 
	C727.685974,571.371948 708.169006,581.882812 687.799866,591.097839 
	C686.278137,591.786255 684.087708,591.857361 683.875549,594.258057 
	C685.046143,595.873718 686.783752,595.819580 688.403809,596.063232 
	C696.707458,597.312195 704.999207,596.929382 713.247131,595.656677 
	C733.582886,592.518799 751.600098,584.904846 765.391113,567.897705 
M300.377899,593.050232 
	C313.358002,596.475830 326.368439,597.770935 339.831635,593.516968 
	C306.346375,577.663025 277.755219,554.580383 245.907028,534.378052 
	C248.515869,545.753479 252.614441,555.554626 258.541382,564.491821 
	C268.398376,579.355347 283.049866,587.530396 300.377899,593.050232 
M492.505524,709.026428 
	C475.668671,696.637268 457.500397,686.930603 438.064667,678.996521 
	C421.619537,672.283142 408.116730,679.722229 392.611206,683.803467 
	C396.622803,686.535339 400.024109,686.718323 403.501282,686.745605 
	C412.630646,686.817139 421.816132,685.974243 430.815186,688.328308 
	C444.210144,691.832336 456.062042,698.589111 467.482941,706.102356 
	C474.286560,710.578064 480.667389,715.692810 487.297333,720.437744 
	C491.147736,723.193481 495.203766,723.857971 499.355286,720.980530 
	C501.773315,719.304688 502.251556,717.419678 499.868286,715.312622 
	C497.625824,713.330139 495.359314,711.374817 492.505524,709.026428 
M648.637451,682.585022 
	C650.495911,682.882874 652.212341,682.489014 653.978699,681.833801 
	C667.390015,676.859253 679.102356,669.065002 690.147766,660.162109 
	C691.526184,659.051086 693.140808,657.984253 693.150024,655.904419 
	C688.640747,651.156372 679.587830,651.963928 672.019897,655.269897 
	C657.088196,661.792603 641.663025,666.963806 626.378784,672.529907 
	C624.982178,673.038513 622.888306,672.943848 622.744263,675.807800 
	C630.753052,679.029358 638.817078,682.342102 648.637451,682.585022 
M399.210144,676.001465 
	C402.062164,672.911377 399.017181,672.396606 397.177795,671.777344 
	C382.059784,666.687744 367.311279,660.646118 352.501312,654.751160 
	C348.206726,653.041748 343.634979,651.804749 338.901764,652.747864 
	C337.018860,653.122925 334.549713,653.145203 333.872650,655.387817 
	C333.162292,657.740845 335.438934,658.849915 336.875397,660.070557 
	C342.327820,664.703857 348.401733,668.480408 354.260071,672.564026 
	C368.391663,682.414490 382.969574,685.098816 399.210144,676.001465 
M526.665771,574.132080 
	C521.482483,585.811035 518.792480,598.061218 518.362366,610.809692 
	C518.309387,612.377441 517.766602,614.450928 519.798035,615.168152 
	C521.780396,615.868042 522.746521,614.056641 523.700195,612.753540 
	C525.850098,609.815918 526.074646,606.252319 526.651917,602.834839 
	C528.554504,591.571411 532.227661,581.003540 538.315002,571.262512 
	C544.631042,561.155457 553.256165,553.526550 563.172363,547.176025 
	C566.847168,544.822571 567.546875,540.862183 566.077698,537.581238 
	C564.310120,533.634033 561.105957,536.759827 558.897644,537.848083 
	C543.525940,545.423340 533.698975,558.056152 526.665771,574.132080 
M489.243835,556.260925 
	C483.071136,548.468933 475.875916,541.850281 466.946655,537.342529 
	C464.896088,536.307312 462.479828,534.067810 460.236847,536.809570 
	C458.218079,539.277283 459.653076,541.991150 460.820923,544.311157 
	C461.879059,546.413269 463.984680,547.705200 466.057861,548.810059 
	C468.866364,550.306641 471.490875,552.053345 473.837616,554.201477 
	C488.304840,567.444214 496.391144,583.991150 499.367798,603.237915 
	C499.821533,606.171814 500.763977,609.046143 501.673767,611.886047 
	C502.068451,613.118164 502.860901,614.522827 504.498627,614.188416 
	C505.977783,613.886292 506.488953,612.522888 506.629639,611.127441 
	C506.729553,610.136475 506.736145,609.131104 506.714935,608.133606 
	C506.313904,589.279358 500.333740,572.270264 489.243835,556.260925 
M492.348083,183.475296 
	C503.068359,186.840607 508.737732,195.028229 512.837646,205.496506 
	C516.922424,193.697800 524.497986,185.895172 536.199402,181.303925 
	C524.855652,177.572235 518.037537,169.340790 512.629333,159.223419 
	C507.913879,169.571167 501.047668,176.325500 491.246613,180.171127 
	C488.762726,181.145737 490.227997,182.386642 492.348083,183.475296 
M642.583923,556.040283 
	C634.288574,568.113220 624.244690,578.949402 616.348145,591.654114 
	C622.693481,593.569946 634.385376,587.980591 642.674805,579.921631 
	C655.390259,567.559692 657.684021,551.267151 660.126160,534.909424 
	C653.053955,540.787781 648.519958,548.524597 642.583923,556.040283 
M381.739563,553.742371 
	C376.679871,547.268616 372.620361,539.941528 366.317841,533.841614 
	C364.862396,536.634827 365.427338,538.232605 365.851562,539.831665 
	C367.387451,545.620972 368.846161,551.432251 370.478119,557.194397 
	C375.106293,573.535767 385.210693,584.911194 401.265991,590.790771 
	C403.107300,591.465088 405.332550,592.688904 406.862976,590.885620 
	C408.582092,588.859985 406.392975,587.175598 405.302002,585.683105 
	C397.635223,575.194336 389.873352,564.775085 381.739563,553.742371 
M579.324219,669.396729 
	C588.213745,667.094543 597.249878,666.083496 606.431030,665.827332 
	C616.496277,665.546509 626.169800,663.092224 635.514893,659.405640 
	C637.382080,658.669006 639.860657,658.396240 640.076599,655.677124 
	C639.256531,654.375061 638.065308,654.377014 636.894775,654.341309 
	C616.518433,653.721375 596.325378,654.938110 576.626465,660.664368 
	C574.398438,661.312012 570.874023,661.253662 570.850464,664.387878 
	C570.830139,667.085388 574.079529,667.888672 576.136169,669.197998 
	C576.758606,669.594299 577.738892,669.428406 579.324219,669.396729 
M705.438232,527.895325 
	C706.495789,525.819519 707.519592,523.725647 708.617004,521.671082 
	C712.375244,514.634644 713.545654,506.891754 714.487000,499.151215 
	C714.759216,496.913208 715.193420,492.415649 710.983215,494.034332 
	C704.503479,496.525574 698.398987,499.848907 697.200012,508.243378 
	C695.793091,518.093811 693.697205,527.860046 690.162415,537.244446 
	C689.563293,538.835083 688.490234,540.635986 690.623840,542.779785 
	C696.988403,539.667480 701.029785,534.101440 705.438232,527.895325 
M249.700867,465.160339 
	C249.056305,466.513428 249.576157,467.756744 250.058151,469.006592 
	C257.611938,488.593964 270.097015,504.182159 287.845764,515.464233 
	C289.132721,516.282288 290.604431,517.601379 292.359314,515.970886 
	C292.572693,513.771362 290.678162,512.851440 289.534058,511.569397 
	C280.713593,501.685364 272.699890,491.307983 268.841187,478.349396 
	C266.935944,471.951019 257.134735,464.697540 249.700867,465.160339 
M756.802734,500.305969 
	C764.956665,491.372406 771.225464,481.257690 775.728638,470.043213 
	C776.573669,467.938751 777.546021,465.799377 775.634644,463.025146 
	C770.349365,466.114777 765.199646,469.034576 760.171936,472.151306 
	C759.309631,472.685852 758.676575,473.992462 758.429688,475.056610 
	C755.034119,489.695770 746.525208,501.182068 736.212036,511.616821 
	C734.942993,512.900757 732.900757,513.983582 733.568848,517.393372 
	C742.714172,513.583069 749.696228,507.467010 756.802734,500.305969 
M327.110718,535.406372 
	C328.478516,536.620239 329.784943,537.914062 331.232452,539.023926 
	C332.517883,540.009521 333.966095,541.506714 335.671265,540.333252 
	C337.554169,539.037537 336.100372,537.228394 335.611053,535.799988 
	C332.856995,527.760498 330.291290,519.589478 329.254883,511.213989 
	C328.281982,503.351227 324.653839,498.319275 317.626373,495.301971 
	C316.020386,494.612457 314.616516,492.820190 312.654205,494.243439 
	C310.884399,495.527100 311.183960,497.576202 311.412201,499.325104 
	C313.143585,512.592651 316.943726,525.007935 327.110718,535.406372 
M711.630676,554.335571 
	C706.166565,554.709961 700.643066,554.707886 695.254150,555.558655 
	C689.180725,556.517395 683.233826,558.261780 678.355408,562.391418 
	C677.195862,563.372986 675.994751,564.421753 676.508057,566.160583 
	C676.982727,567.768616 678.270081,568.588440 679.879272,568.681885 
	C696.569153,569.651245 712.803528,568.403198 727.238342,558.691284 
	C728.461792,557.868103 729.794861,557.004395 728.982422,554.331116 
	C723.686035,554.331116 718.143494,554.331116 711.630676,554.335571 
M455.056183,710.466248 
	C439.846710,700.289978 423.721375,694.613647 404.659119,699.753723 
	C413.157562,707.753906 458.611725,721.438782 464.375214,717.942932 
	C462.456268,714.334473 458.549286,713.206787 455.056183,710.466248 
M316.635895,565.879944 
	C326.121918,567.509155 335.575134,569.513062 345.297638,567.781555 
	C346.682495,567.534912 348.025787,567.437012 348.483124,565.919250 
	C348.983704,564.257935 348.180634,562.998047 346.819275,562.099060 
	C343.757294,560.077148 340.591278,558.317688 337.014221,557.269714 
	C324.537964,553.614807 311.566803,555.156311 298.899902,553.536377 
	C297.687744,553.381348 296.631042,554.031006 296.397278,556.067993 
	C301.615723,561.368164 308.509613,563.952209 316.635895,565.879944 
M251.317612,422.126373 
	C251.339478,421.629547 251.453583,421.116577 251.369858,420.638214 
	C248.176605,402.393158 247.153824,384.130127 250.396744,365.750488 
	C250.845642,363.206329 250.979141,360.105194 247.825012,358.519623 
	C245.612793,360.940094 244.944473,361.963867 244.478683,364.043762 
	C240.477310,381.910614 240.014877,399.843506 243.705292,417.810638 
	C244.336182,420.882202 245.242874,423.950836 246.470947,426.829346 
	C247.481171,429.197266 249.247986,429.130157 250.388840,426.777832 
	C250.947067,425.626831 250.950424,424.206726 251.317612,422.126373 
M686.538086,517.358643 
	C686.626892,516.698975 686.691040,516.034790 686.809570,515.380493 
	C687.066162,513.963196 687.997070,512.334045 686.065857,511.451477 
	C684.436584,510.706940 683.234558,511.840149 682.082336,512.824036 
	C679.778076,514.791626 677.840698,517.082825 676.443665,519.761475 
	C670.924011,530.345154 669.737122,542.334473 665.632629,553.383423 
	C665.210754,554.519104 665.433289,555.770020 666.709595,556.385559 
	C667.971619,556.994141 669.027344,556.326843 669.809509,555.433960 
	C671.556824,553.439270 673.364746,551.465149 674.853149,549.281738 
	C681.269287,539.869385 683.792358,528.992493 686.538086,517.358643 
M542.838989,578.270264 
	C540.203247,585.067261 536.295227,591.571106 538.038513,599.554871 
	C549.351013,584.517334 560.371338,569.483398 565.452393,549.801208 
	C556.853516,554.527832 548.399048,565.435364 542.838989,578.270264 
M475.355316,564.158691 
	C471.651825,559.100586 467.657715,554.337158 462.281677,550.468445 
	C460.500397,558.439209 480.323547,595.032776 489.473785,599.813843 
	C488.338867,586.100342 482.365265,575.317139 475.355316,564.158691 
M346.152435,514.368652 
	C344.403015,512.411621 342.693024,510.391357 339.592682,510.079193 
	C338.533051,513.660645 339.455017,516.848145 340.305847,520.001404 
	C343.117798,530.422729 345.540955,541.016663 352.022614,549.989441 
	C353.806366,552.458679 355.605499,555.182312 359.556183,554.850830 
	C360.476074,549.691711 357.680420,545.560608 356.525116,541.197266 
	C354.127228,532.140869 353.281830,522.388550 346.152435,514.368652 
M665.018799,349.688080 
	C662.968262,350.569580 660.917786,351.451080 657.742249,352.816193 
	C667.291992,354.710297 672.859802,359.989960 676.331421,369.338776 
	C679.472534,360.474823 685.261108,356.114105 693.353943,352.489899 
	C684.900269,349.519592 679.864075,344.792328 676.334473,337.176453 
	C673.709167,343.127655 670.495422,347.021729 665.018799,349.688080 
M363.616272,353.842010 
	C365.484222,352.411713 364.296906,351.643188 362.935547,351.103851 
	C358.028900,349.160126 353.894226,346.291595 351.060791,341.718781 
	C350.285278,340.467194 348.663940,339.523499 347.804596,340.885101 
	C344.571686,346.007690 340.017303,349.573578 334.418060,352.616089 
	C341.428162,355.518250 345.543427,360.753815 349.559784,367.293243 
	C353.348999,361.223663 356.886383,356.176361 363.616272,353.842010 
M284.623077,490.862885 
	C289.975952,498.708069 296.286926,505.670044 303.418945,512.596252 
	C307.078033,500.715729 299.850494,486.838379 288.103516,481.938202 
	C285.957428,481.042938 283.317169,478.906464 281.211334,481.086182 
	C278.886780,483.492340 281.825012,485.522400 282.835114,487.613403 
	C283.266815,488.507141 283.794159,489.354706 284.623077,490.862885 
M730.212097,486.693451 
	C723.204468,493.092896 722.638062,501.414764 723.072388,510.202393 
	C732.636902,502.876099 740.694580,494.479248 745.367981,483.425293 
	C746.505615,480.734680 744.112366,479.824554 741.845520,480.631409 
	C737.936157,482.022858 734.131348,483.725403 730.212097,486.693451 
M632.389526,684.202271 
	C619.144836,680.361267 606.212646,674.846497 591.833923,675.483459 
	C591.892761,679.170044 593.971436,679.809448 595.660706,680.718811 
	C605.261230,685.886414 615.687378,687.508850 626.403809,687.412476 
	C628.590088,687.392883 631.600769,687.862488 632.389526,684.202271 
M418.924622,213.580521 
	C420.132660,213.204224 421.602386,213.250885 422.158569,211.407700 
	C420.637817,210.004303 420.758392,207.762756 420.047668,205.599121 
	C414.078217,205.992035 410.557312,202.508240 407.592651,197.049484 
	C405.991943,200.838852 405.790222,203.506088 407.676758,205.956268 
	C409.373077,208.159409 409.228912,209.909790 407.544373,212.134796 
	C405.364288,215.014359 405.752838,218.103256 408.022614,221.510727 
	C410.719757,217.482407 413.604706,214.378510 418.924622,213.580521 
M617.954895,199.906525 
	C613.758606,201.869003 610.396301,205.172791 605.843384,206.742264 
	C603.217163,207.647552 603.424622,212.500168 605.819031,213.004379 
	C610.752502,214.043320 614.296814,216.973328 617.525208,220.904907 
	C618.184265,219.645874 618.978516,218.857056 618.883545,218.195908 
	C618.028076,212.238144 617.839783,206.280869 617.954895,199.906525 
M449.628540,542.802368 
	C449.245209,538.955566 450.037506,534.087830 445.577118,532.528381 
	C441.088074,530.958923 436.707092,532.942383 431.756226,536.527771 
	C438.376190,538.388428 443.420288,540.917053 447.958527,544.383606 
	C448.139252,544.521667 448.967499,543.812134 449.628540,542.802368 
M582.745605,541.076294 
	C583.174377,540.829895 583.671021,540.655457 584.020752,540.325256 
	C586.196716,538.271118 591.817932,539.450989 591.134033,535.787048 
	C590.420227,531.962524 585.098877,532.844299 581.786926,531.716614 
	C579.998535,531.107727 578.246704,531.908752 577.781799,533.669189 
	C576.889038,537.049744 575.486938,540.484131 576.780579,544.153748 
	C579.242126,544.215637 580.414673,542.310669 582.745605,541.076294 
M621.471436,443.653473 
	C620.070923,442.117157 618.670471,440.580872 616.700989,438.420410 
	C615.256958,442.790771 609.634277,442.976532 609.556519,448.507294 
	C612.894043,448.204834 614.762878,451.047913 617.574463,451.994019 
	C618.981262,450.028442 620.048767,448.133759 621.929443,446.936981 
	C623.385315,446.010406 622.807007,445.037750 621.471436,443.653473 
M406.160522,450.306458 
	C406.680237,451.987671 407.503448,453.030823 409.374146,451.807892 
	C411.527191,450.400360 413.674164,448.983521 416.221252,447.309448 
	C413.299438,444.643433 410.671448,442.245483 408.387207,440.161194 
	C406.038818,442.353455 404.046692,444.213104 401.975128,446.146973 
	C403.241364,447.307465 404.548157,448.505096 406.160522,450.306458 
M578.729858,201.363388 
	C576.885681,198.702728 576.042419,200.952728 575.424438,202.214691 
	C573.164307,206.829529 571.062683,211.522690 568.946472,216.206726 
	C568.356384,217.512802 568.167542,218.804855 571.058472,219.685547 
	C573.587646,213.887711 576.178589,207.948318 578.729858,201.363388 
M437.266449,183.347168 
	C438.913391,185.818237 438.570770,189.854355 442.745819,190.687973 
	C442.935852,184.796753 438.001007,175.116882 433.970306,173.537125 
	C433.447144,177.160049 435.857208,179.717041 437.266449,183.347168 
M446.509155,199.700424 
	C447.522430,206.677780 451.966736,211.973114 455.083832,217.948639 
	C454.909424,210.898117 451.703339,205.069427 448.244629,199.351837 
	C448.108521,199.126816 447.364380,199.269562 446.509155,199.700424 
M668.280029,281.452179 
	C663.646667,282.424774 661.737610,284.938110 663.570923,287.786896 
	C664.459412,289.167480 665.673035,290.457611 667.533142,290.261658 
	C669.273254,290.078339 670.643372,289.023346 671.266968,287.409576 
	C672.248779,284.868896 671.196350,282.970703 668.280029,281.452179 
M384.241272,485.745819 
	C386.767334,486.518646 386.849182,489.707336 388.965363,490.954620 
	C390.692688,488.652740 392.233856,486.598969 393.858307,484.434235 
	C392.127045,482.601349 390.474213,480.851471 388.580170,478.846252 
	C387.121094,481.344421 384.642792,482.618988 384.241272,485.745819 
M468.763214,175.783615 
	C469.811340,177.767380 468.645935,180.898331 472.702515,182.226501 
	C472.963409,175.324356 471.243256,169.567078 467.807800,163.129135 
	C465.636597,168.031570 468.668915,171.398682 468.763214,175.783615 
M639.269348,487.767029 
	C644.302979,483.361420 639.130676,481.741333 637.709534,479.637634 
	C635.688721,481.242218 633.903259,482.659943 631.872253,484.272614 
	C633.396240,485.718384 634.755920,486.815338 635.451172,488.597565 
	C636.602234,491.548553 637.905640,490.559265 639.269348,487.767029 
M669.971680,409.328308 
	C668.111572,408.357819 666.251465,407.387360 664.391052,406.417572 
	C660.722107,410.558044 660.861206,411.170776 666.938477,416.513977 
	C667.928284,414.054352 672.308655,413.696686 669.971680,409.328308 
M550.896729,198.300751 
	C551.064087,197.337250 551.488403,196.124741 550.232666,195.748505 
	C548.728394,195.297806 548.211670,196.693283 547.895752,197.738693 
	C546.654236,201.847504 545.489258,205.981857 544.419983,210.138657 
	C544.146362,211.202286 544.028564,212.511292 546.175781,213.134354 
	C548.879211,208.877533 549.104675,203.671188 550.896729,198.300751 
M364.384583,411.313232 
	C360.794098,406.586731 357.687683,411.185211 353.762817,411.223572 
	C355.264282,412.965912 356.294617,413.992218 357.116699,415.164581 
	C357.893463,416.272278 357.779419,418.052277 359.660522,418.441528 
	C361.205017,416.256287 362.719238,414.113861 364.384583,411.313232 
M355.528381,288.661407 
	C356.983185,289.817810 358.432922,290.981567 360.256104,289.258331 
	C361.733002,287.862366 363.207153,286.408142 361.844849,284.199554 
	C360.791229,282.491486 359.361237,280.635071 357.143280,281.648651 
	C354.382690,282.910126 353.523651,285.273499 355.528381,288.661407 
M647.099548,437.522888 
	C645.392639,436.708710 644.279602,434.113586 641.647522,435.504089 
	C643.955200,440.457245 651.876221,446.452332 655.057617,445.578400 
	C653.854553,441.754700 650.070129,440.489075 647.099548,437.522888 
M372.917694,253.363785 
	C371.445587,251.321213 369.613373,249.885590 367.048676,251.175369 
	C365.082855,252.163986 364.994171,254.132156 365.725403,255.956329 
	C366.419434,257.687592 367.638885,259.484528 369.692444,259.102539 
	C372.245392,258.627625 373.583282,256.744812 372.917694,253.363785 
M345.106201,273.298370 
	C341.696442,271.749969 339.113983,268.178070 333.542725,268.618347 
	C337.557648,274.359283 342.832977,275.618591 347.976074,277.688202 
	C348.372345,275.120575 346.583374,274.710968 345.106201,273.298370 
M656.466248,404.094482 
	C653.342529,399.159821 648.337524,397.572083 643.033386,396.486115 
	C646.934631,400.025208 650.013489,404.866028 656.466248,404.094482 
M658.967590,251.735291 
	C656.578369,250.149796 654.620239,250.740692 653.111450,253.009598 
	C651.892639,254.842407 652.569519,256.492157 653.997131,257.828918 
	C655.380920,259.124664 657.050842,259.023621 658.513855,258.018921 
	C660.777039,256.464813 661.281006,254.477676 658.967590,251.735291 
M557.492737,174.052994 
	C558.226318,171.613739 559.583801,169.191223 557.288635,165.476654 
	C554.378723,170.975754 553.121643,175.834610 552.920227,181.865448 
	C556.740906,180.081787 556.275452,177.050919 557.492737,174.052994 
M387.193634,267.238831 
	C389.501282,268.329376 391.049652,270.780487 393.852570,271.237091 
	C394.024750,267.344208 386.879120,261.722046 381.393707,261.318298 
	C381.820038,264.497406 384.637939,265.293060 387.193634,267.238831 
M379.022980,437.610626 
	C376.570312,439.578400 374.095978,441.520111 371.677246,443.528717 
	C370.887512,444.184540 370.318512,445.033112 371.105835,446.104218 
	C371.819824,447.075470 372.790192,447.291107 373.656769,446.518646 
	C377.152618,443.402496 380.578827,440.208221 384.154083,436.929749 
	C381.913910,435.258789 380.781097,436.469116 379.022980,437.610626 
M684.402649,271.013885 
	C682.064636,273.200134 677.968628,273.428528 676.567322,278.492157 
	C682.183777,275.742493 687.288330,274.349609 690.921448,269.871307 
	C687.995117,267.650482 686.773376,270.350800 684.402649,271.013885 
M633.062317,270.964050 
	C636.709534,267.907867 641.419983,266.107574 644.056702,261.774902 
	C638.613708,262.339264 634.841248,265.589966 631.438721,269.341217 
	C630.905823,269.928711 631.405701,270.936584 633.062317,270.964050 
M679.383362,312.089386 
	C676.654785,313.069275 673.201416,312.772430 671.634277,316.262177 
	C676.849670,317.282074 683.028320,315.120117 684.751892,311.789276 
	C683.182434,310.660522 681.636963,311.440735 679.383362,312.089386 
M373.367950,399.751709 
	C372.067139,400.999298 369.742554,401.498260 370.030518,404.060455 
	C375.007477,403.787781 380.987030,399.795990 382.001068,395.968384 
	C378.717865,395.876770 376.542358,398.144318 373.367950,399.751709 
M694.822266,389.426208 
	C691.595947,388.861847 688.561157,385.891541 683.811462,388.752747 
	C688.752625,391.176025 692.662659,392.939484 697.284607,393.076721 
	C697.491028,390.861145 696.420898,390.319550 694.822266,389.426208 
M381.416138,297.675568 
	C378.126617,294.804688 374.594635,292.619873 370.027344,293.234253 
	C372.416656,296.629333 376.092194,297.864410 379.276917,299.809479 
	C380.569305,300.598846 381.461731,299.755981 381.416138,297.675568 
M586.666809,179.257416 
	C586.102783,182.517593 582.472778,185.084763 584.497742,190.162338 
	C587.688965,185.157349 589.875061,180.956726 590.724304,175.856812 
	C588.022583,175.737473 587.790466,177.486099 586.666809,179.257416 
M338.760834,387.434143 
	C334.694672,387.823853 330.931396,388.892639 327.642639,391.986511 
	C331.005798,393.173004 338.748077,391.380035 340.014801,389.299744 
	C340.202759,388.991089 339.610229,388.207184 338.760834,387.434143 
M343.089844,314.595459 
	C346.041321,314.385956 348.893372,318.086365 352.362854,314.882660 
	C349.456970,312.351807 346.271973,311.678009 342.991425,311.291809 
	C342.169159,311.195007 341.231873,311.263550 340.913361,312.235382 
	C340.491852,313.521576 341.548950,313.933533 343.089844,314.595459 
M660.011841,321.574890 
	C661.207947,320.858063 663.042114,320.639282 662.453491,318.501984 
	C656.965820,317.974121 653.858276,319.337585 652.748840,322.890045 
	C655.177673,323.844727 657.207642,322.455841 660.011841,321.574890 
M652.588196,296.201721 
	C653.539795,295.283508 655.592834,295.179688 654.775574,292.378601 
	C650.647766,293.239594 647.205627,294.871582 644.136597,298.620026 
	C647.985901,300.111328 649.669556,297.280121 652.588196,296.201721 
M354.530518,242.081802 
	C352.836365,241.261337 351.926117,239.052628 349.641876,239.235443 
	C348.558380,243.549393 352.232300,246.707458 357.341522,245.896866 
	C357.704712,244.022263 356.073547,243.452408 354.530518,242.081802 
M670.892761,245.956436 
	C673.079651,244.157196 676.879333,243.847870 676.933533,239.532120 
	C672.814880,239.400589 670.596375,242.075211 668.580627,244.463120 
	C667.170959,246.133102 668.719604,246.611084 670.892761,245.956436 
M701.349487,308.285034 
	C700.883484,304.237488 698.240723,305.906067 696.238892,306.481415 
	C694.837402,306.884277 693.851990,308.171753 694.897705,309.567200 
	C696.290466,311.425659 698.139771,310.670715 699.810852,309.747253 
	C700.239502,309.510376 700.591919,309.135498 701.349487,308.285034 
M327.274048,305.545135 
	C325.090851,305.545349 323.783264,306.751587 325.074738,308.600739 
	C326.568756,310.739929 328.901337,311.569366 331.242157,309.388184 
	C330.976288,307.149902 329.192993,306.695526 327.274048,305.545135 
M365.681152,319.312195 
	C365.906158,322.666321 369.165344,323.858856 373.572296,322.037048 
	C371.841797,319.194031 369.054230,319.239014 365.681152,319.312195 
M474.414520,197.259109 
	C475.078064,198.960190 475.209747,201.212479 478.300690,200.887085 
	C478.327698,198.114639 478.081055,195.697525 476.154968,193.837799 
	C474.245117,194.184875 474.475128,195.468994 474.414520,197.259109 
M359.415588,454.904572 
	C360.586975,457.014557 361.943970,456.700470 363.112152,455.011322 
	C363.939453,453.815033 363.900146,452.314362 362.367157,451.763336 
	C360.286530,451.015442 359.419067,452.314362 359.415588,454.904572 
M411.145477,475.420959 
	C412.974396,477.134399 414.414276,476.600037 415.222992,474.476929 
	C415.684235,473.265991 414.878479,472.083923 413.690613,471.867157 
	C411.440369,471.456512 410.308655,472.493073 411.145477,475.420959 
M610.449280,473.126556 
	C610.200378,475.013702 610.513000,476.624481 612.890015,476.353241 
	C614.229126,476.200409 614.877930,474.974762 614.442383,473.729919 
	C613.793152,471.873871 612.588989,470.940887 610.449280,473.126556 
M400.293884,514.432861 
	C401.738800,515.930481 403.121460,516.105530 404.090973,514.021606 
	C404.656464,512.806152 404.176270,511.647614 402.833374,511.373352 
	C400.949799,510.988678 399.549988,511.497162 400.293884,514.432861 
M391.756958,233.559387 
	C393.619598,235.256668 394.753754,234.143585 395.404053,232.415482 
	C395.776794,231.424957 395.050171,230.361938 394.050079,230.135391 
	C391.661957,229.594513 391.301331,231.115280 391.756958,233.559387 
M663.705750,456.030212 
	C665.572571,456.094269 666.672607,455.322723 666.056702,453.368286 
	C665.698730,452.231964 664.681335,451.200989 663.379883,451.961731 
	C661.637207,452.980408 662.102112,454.403412 663.705750,456.030212 
M651.105713,376.867584 
	C649.249634,376.904022 648.142456,377.684113 648.992249,379.615326 
	C649.522766,380.820984 650.838623,381.161774 651.944702,380.413940 
	C653.664429,379.251129 653.442688,378.029633 651.105713,376.867584 
z"/>
<path fill="#000000" opacity="1.000000" stroke="none" 
	d="
M702.755127,821.998169 
	C702.760559,811.013489 702.785034,800.528259 702.760132,790.043152 
	C702.751526,786.401184 702.980164,782.991394 707.177368,781.502014 
	C711.606262,779.930420 714.592407,782.117676 717.070496,785.303040 
	C722.279968,791.998962 727.349548,798.803589 732.516052,805.533203 
	C733.305054,806.560730 734.026733,807.767395 735.548279,808.021423 
	C737.228943,807.304810 736.582092,805.755676 736.603760,804.578064 
	C736.701660,799.253845 736.590149,793.925659 736.697449,788.601807 
	C736.797485,783.639404 739.366394,780.977295 743.888672,780.882996 
	C748.438416,780.788147 751.241699,783.464966 751.266113,788.367554 
	C751.344116,804.011780 751.303284,819.656555 751.294006,835.301147 
	C751.291992,838.694641 750.379333,841.577332 746.762024,842.797668 
	C743.151855,844.015564 740.608704,842.296936 738.572144,839.614502 
	C733.240601,832.591980 727.999023,825.501343 722.699097,818.454651 
	C721.510010,816.873718 720.229309,815.361694 718.442444,813.134460 
	C717.669739,817.404968 717.665039,820.851685 717.872681,824.391113 
	C718.115417,828.528931 718.069397,832.707886 717.794678,836.845459 
	C717.477478,841.622681 714.261169,843.326660 709.892334,843.224915 
	C705.431274,843.121033 702.889954,840.594482 702.746948,835.977600 
	C702.607971,831.488708 702.741150,826.991333 702.755127,821.998169 
z"/>
<path fill="#000000" opacity="1.000000" stroke="none" 
	d="
M640.228638,842.302246 
	C634.340698,844.584656 631.409668,840.762634 628.618164,837.289124 
	C623.722290,831.197327 619.125610,824.865540 614.375488,818.655762 
	C613.485291,817.492004 612.463562,816.428833 611.110779,814.867065 
	C609.498779,819.552429 610.527954,823.818848 610.285828,827.976929 
	C610.131287,830.631104 610.359802,833.310974 610.146240,835.957581 
	C609.736023,841.040833 607.301025,843.269165 602.503723,843.242554 
	C598.096863,843.218018 595.767456,840.926331 595.731812,835.862366 
	C595.619324,819.891296 595.674866,803.919006 595.687561,787.947144 
	C595.688599,786.630859 595.662415,785.252930 597.170044,784.002747 
	C599.391968,784.360657 601.874817,784.966187 604.379761,783.347229 
	C606.858704,781.745178 608.335693,784.024963 609.613586,785.715515 
	C614.225037,791.816284 618.725037,798.001160 623.332031,804.105347 
	C624.613770,805.803711 625.768127,807.679932 627.849426,808.772888 
	C629.496094,807.269409 628.697998,805.343750 628.760986,803.661133 
	C628.966125,798.180908 628.686096,792.663147 629.215698,787.220398 
	C629.661560,782.637878 633.129456,780.471069 637.806213,781.029480 
	C642.160889,781.549377 643.442932,784.199524 643.409363,788.334351 
	C643.280945,804.139221 643.350464,819.945740 643.372437,835.751648 
	C643.375977,838.310974 643.404236,840.823486 640.228638,842.302246 
z"/>
<path fill="#000000" opacity="1.000000" stroke="none" 
	d="
M450.201813,834.902466 
	C452.527771,840.239014 451.711304,841.931824 446.731171,842.927429 
	C442.157440,843.841858 438.601288,842.322144 435.822174,838.628174 
	C432.921661,834.772705 429.938629,830.978821 426.960083,827.182861 
	C426.126404,826.120361 425.137939,825.067749 423.618530,825.465332 
	C422.046204,825.876770 421.810333,827.404968 421.700989,828.677307 
	C421.459473,831.488220 421.302216,834.324585 421.390991,837.141663 
	C421.533112,841.653198 418.575073,842.797729 415.023193,843.191101 
	C411.359131,843.596863 408.357697,842.563354 407.395508,838.501465 
	C407.091583,837.218567 406.941772,835.868347 406.942169,834.549011 
	C406.946472,819.899902 406.907074,805.249939 407.065338,790.602112 
	C407.149689,782.796143 408.389709,781.695496 416.130493,781.614014 
	C421.119751,781.561462 426.128571,781.373169 431.096252,781.715576 
	C439.267029,782.278687 445.462494,786.269226 448.220764,794.099121 
	C450.872345,801.625977 450.001495,808.813049 444.022064,814.855957 
	C439.001221,819.930054 439.088684,819.989868 443.478271,825.773499 
	C445.689423,828.686890 447.833313,831.651367 450.201813,834.902466 
M421.461395,804.890991 
	C422.070648,808.634216 424.694366,809.021606 427.761749,808.676636 
	C431.047058,808.307190 433.414124,806.491577 434.313049,803.445129 
	C435.161926,800.568420 433.430847,798.337341 431.122314,796.772644 
	C428.823364,795.214294 425.986511,794.417969 423.640961,795.918274 
	C420.789093,797.742615 421.419769,801.146301 421.461395,804.890991 
z"/>
<path fill="#000000" opacity="1.000000" stroke="none" 
	d="
M795.165039,795.166016 
	C786.341309,796.211182 779.762207,803.007324 779.423523,811.000061 
	C779.089966,818.871704 785.883301,827.133301 793.828369,828.518250 
	C799.180237,829.451111 801.978210,827.065552 801.782654,822.049866 
	C801.673889,819.259949 800.538513,818.122925 797.797485,818.316650 
	C796.307678,818.421997 794.787109,818.428833 793.306091,818.257751 
	C789.534302,817.821838 787.729736,815.511597 787.776367,811.820801 
	C787.822937,808.129700 789.545227,805.837158 793.488403,805.684204 
	C798.475769,805.490662 803.463562,805.111694 808.449524,805.138062 
	C812.960083,805.161926 815.539856,807.306824 815.393250,812.264771 
	C815.221191,818.085083 815.113159,823.932983 815.487732,829.735962 
	C815.810974,834.744446 813.272278,837.439087 809.289551,839.495178 
	C796.789795,845.948425 781.955627,842.922241 772.683228,831.998779 
	C763.317627,820.965454 762.320862,805.583435 770.222351,794.019348 
	C777.773560,782.967590 792.266846,777.911804 804.537781,782.178894 
	C808.161804,783.439148 812.296265,784.777649 811.276794,789.896118 
	C810.310364,794.748535 805.836853,796.925232 800.525818,795.760559 
	C798.912781,795.406860 797.234619,795.350281 795.165039,795.166016 
z"/>
<path fill="#000000" opacity="1.000000" stroke="none" 
	d="
M379.702393,818.299805 
	C377.762115,818.318970 376.259552,818.395935 374.765778,818.313538 
	C371.273529,818.121033 369.391144,819.608276 369.406189,823.216431 
	C369.420837,826.730164 370.762238,828.998596 374.674805,828.931091 
	C378.004211,828.873596 381.339386,828.720703 384.662720,828.849487 
	C389.045349,829.019226 392.198151,832.168579 392.082611,835.981689 
	C391.953186,840.252014 389.360992,842.466003 384.473175,842.544922 
	C377.320862,842.660400 370.159973,843.088135 363.019653,842.857849 
	C356.636169,842.651978 355.018372,840.997131 354.969147,834.592834 
	C354.852661,819.442932 354.949738,804.288269 355.216797,789.140076 
	C355.325470,782.975830 356.968628,781.743469 363.166412,781.629822 
	C369.981842,781.504944 376.814423,780.971863 383.606720,781.298645 
	C390.663055,781.638123 393.122070,786.485657 389.747284,792.104065 
	C388.337769,794.450684 386.183990,794.968079 383.810211,795.072449 
	C380.318359,795.226013 376.820404,795.260620 373.324524,795.296448 
	C370.260254,795.327820 369.291656,797.084717 369.393463,799.842285 
	C369.489746,802.449951 370.296875,804.459778 373.321167,804.596252 
	C375.149872,804.678894 376.983398,804.657288 378.814819,804.676331 
	C382.718445,804.716919 385.755463,805.978943 386.261871,810.366394 
	C386.787292,814.918762 384.932739,817.770081 379.702393,818.299805 
z"/>
<path fill="#000000" opacity="1.000000" stroke="none" 
	d="
M324.860962,796.900757 
	C326.617645,792.714111 327.972809,788.746033 329.912415,785.087830 
	C332.279541,780.623291 338.999756,779.436035 343.017944,782.441040 
	C345.106720,784.003052 345.144531,786.050415 344.277832,788.259460 
	C337.651276,805.149475 330.944214,822.006531 323.470123,838.545654 
	C322.474030,840.749878 321.113312,842.763000 318.471375,842.911865 
	C315.465057,843.081360 313.990326,840.741882 313.036407,838.455017 
	C308.230804,826.934265 303.588989,815.345154 298.897400,803.776855 
	C297.083496,799.304199 295.231995,794.845520 293.506622,790.338745 
	C292.282043,787.140076 291.105927,783.809753 295.415588,781.839478 
	C300.495178,779.517151 305.432983,780.773804 307.347321,785.200134 
	C310.450928,792.376160 313.232941,799.690979 316.190002,806.931091 
	C316.682220,808.136230 317.373505,809.259949 318.199097,810.859802 
	C321.653198,806.609558 322.461304,801.570129 324.860962,796.900757 
z"/>
<path fill="#000000" opacity="1.000000" stroke="none" 
	d="
M827.758484,799.052368 
	C828.849670,782.801514 847.106079,776.668335 859.726379,783.211060 
	C862.167175,784.476562 865.000244,785.958862 863.838745,789.652527 
	C862.487061,793.951172 858.610840,796.834106 855.014221,796.078308 
	C852.568420,795.564453 850.184937,794.818237 847.644104,795.134644 
	C845.630371,795.385437 844.227051,796.427979 843.650208,798.389404 
	C843.060364,800.395081 844.381409,801.677551 845.811096,802.462158 
	C850.177979,804.858704 854.834900,806.759705 859.068542,809.359253 
	C868.314636,815.036499 870.204590,826.424561 863.571838,834.866516 
	C856.393555,844.002930 839.895142,845.660645 831.034668,838.187744 
	C828.389771,835.957092 827.434082,833.503418 829.315186,830.326599 
	C831.229553,827.093750 833.480652,824.645081 837.754150,826.097534 
	C840.418091,827.002930 842.846008,828.644531 845.764526,828.755310 
	C848.219116,828.848572 850.661133,828.445801 851.549805,825.845764 
	C852.476440,823.134644 850.662720,821.424316 848.451111,820.305359 
	C845.039795,818.579407 841.535034,817.039368 838.098877,815.361206 
	C831.495117,812.136292 828.250854,806.696045 827.758484,799.052368 
z"/>
<path fill="#000000" opacity="1.000000" stroke="none" 
	d="
M175.063232,787.077881 
	C182.905609,780.569458 191.293381,778.876526 200.467300,782.684875 
	C203.520157,783.952148 206.875793,785.525024 205.506577,789.933044 
	C204.033020,794.676941 200.540817,796.699829 196.141083,795.927307 
	C192.515076,795.290710 187.587860,793.243896 186.102158,797.962952 
	C184.519287,802.990540 190.125977,803.498169 193.332764,805.016907 
	C199.421921,807.900879 205.511810,810.712585 208.065384,817.624634 
	C212.595230,829.885925 201.916992,843.304016 187.989899,842.781555 
	C183.295212,842.605469 178.765198,841.514404 174.675003,839.029724 
	C171.286743,836.971558 169.578888,834.244751 171.356476,830.264771 
	C173.118057,826.320435 176.533890,825.041626 180.818588,826.566162 
	C183.150681,827.395996 185.320358,828.691040 187.943604,828.676208 
	C190.554962,828.661499 192.598495,827.757568 193.448395,825.256409 
	C194.322037,822.685425 192.604355,821.106262 190.597244,820.087402 
	C187.044113,818.283569 183.264557,816.907715 179.781952,814.986267 
	C168.623535,808.830078 166.561966,797.060730 175.063232,787.077881 
z"/>
<path fill="#000000" opacity="1.000000" stroke="none" 
	d="
M273.759064,842.851440 
	C270.633209,842.842896 267.952972,842.996399 265.311493,842.744019 
	C259.370148,842.176270 257.823822,840.543152 257.781982,834.474243 
	C257.676331,819.148010 257.669403,803.820740 257.714447,788.494141 
	C257.729187,783.476501 260.188660,781.051331 264.975983,780.912048 
	C269.594513,780.777588 272.239655,783.354431 272.276886,788.385193 
	C272.359375,799.546570 272.288513,810.708984 272.324493,821.870850 
	C272.344788,828.173279 272.826385,828.617920 279.225128,828.662537 
	C282.890045,828.688110 286.558838,828.574219 290.219452,828.704407 
	C294.988220,828.874023 298.012054,831.858704 297.934235,836.089172 
	C297.858917,840.179688 295.062744,842.428101 290.197937,842.479370 
	C284.872101,842.535522 279.547424,842.707703 273.759064,842.851440 
z"/>
<path fill="#000000" opacity="1.000000" stroke="none" 
	d="
M533.863281,842.983154 
	C527.409973,842.678894 521.437134,843.325439 515.447144,842.716248 
	C511.216248,842.285950 509.660767,840.067749 509.661133,836.179626 
	C509.662720,820.054321 509.598328,803.928650 509.702698,787.804016 
	C509.733643,783.027771 512.223511,780.809265 516.959473,780.897156 
	C521.328125,780.978149 523.864014,783.270203 523.925964,787.672241 
	C524.077820,798.475037 524.063293,809.280212 524.111938,820.084473 
	C524.150574,828.669006 524.148071,828.667053 532.554749,828.675598 
	C535.214539,828.678284 537.875305,828.650879 540.533813,828.714233 
	C544.998962,828.820618 547.205688,831.263489 547.333496,835.616821 
	C547.454285,839.729004 545.688599,842.291138 541.297424,842.530396 
	C538.978394,842.656738 536.661865,842.831055 533.863281,842.983154 
z"/>
<path fill="#000000" opacity="1.000000" stroke="none" 
	d="
M575.264404,785.527588 
	C575.336060,802.465088 575.382507,818.957214 575.359802,835.449158 
	C575.352234,840.966797 573.442383,843.052490 568.538635,843.244629 
	C563.767761,843.431641 561.022522,841.238464 560.950806,836.057312 
	C560.727234,819.901978 560.821106,803.742126 560.825745,787.583984 
	C560.826721,784.072388 562.773621,781.964661 566.091431,781.257080 
	C569.942871,780.435791 573.453003,780.758850 575.264404,785.527588 
z"/>
<path fill="#000000" opacity="1.000000" stroke="none" 
	d="
M434.291748,890.010559 
	C434.288300,895.830688 434.280945,901.153259 434.282959,906.475891 
	C434.284332,910.210022 433.248901,913.307983 428.816284,913.177673 
	C424.555817,913.052490 424.686554,909.717834 424.632843,906.622742 
	C424.500671,899.005615 423.649689,898.272949 417.017548,898.251892 
	C412.752441,898.238403 410.835846,899.915894 411.210022,904.206665 
	C411.310059,905.353577 411.183167,906.540955 411.009918,907.687012 
	C410.567566,910.614075 409.883820,913.346375 406.006317,913.264526 
	C402.528625,913.191162 401.310303,910.788574 401.147339,908.013672 
	C400.581787,898.385315 400.577087,888.736755 401.174164,879.108459 
	C401.367493,875.990723 403.282501,874.551331 406.587494,874.634460 
	C409.993500,874.720154 410.666077,876.901489 411.071198,879.508423 
	C411.172791,880.162292 411.160492,880.834473 411.190796,881.498718 
	C411.512085,888.538879 414.413239,890.582642 421.297272,888.800720 
	C423.081024,888.338989 423.730377,887.291138 423.904053,885.656128 
	C424.149963,883.341003 424.449219,881.031189 424.670471,878.713867 
	C424.941711,875.872375 426.507782,874.677673 429.311340,874.664856 
	C432.346344,874.651001 434.105988,876.042664 434.242615,879.036438 
	C434.401703,882.522095 434.287415,886.020325 434.291748,890.010559 
z"/>
<path fill="#000000" opacity="1.000000" stroke="none" 
	d="
M238.947021,819.989990 
	C238.775177,826.136047 238.626419,831.785156 238.433914,837.432678 
	C238.273880,842.127686 234.928970,843.178711 231.216293,843.186951 
	C227.191437,843.195801 224.652039,841.273499 224.663376,836.792419 
	C224.704636,820.486694 224.737656,804.180359 224.639053,787.875122 
	C224.610535,783.158813 227.247421,781.264038 231.354645,780.881409 
	C235.939316,780.454407 238.917358,783.057007 239.002472,788.048218 
	C239.181107,798.526245 238.990295,809.010559 238.947021,819.989990 
z"/>
<path fill="#000000" opacity="1.000000" stroke="none" 
	d="
M682.309814,816.000000 
	C682.309326,822.832947 682.373352,829.166687 682.287781,835.498535 
	C682.217957,840.666992 679.905273,843.068176 675.156067,843.191528 
	C670.406128,843.314880 667.793091,840.923767 667.797180,835.802124 
	C667.809570,820.137451 667.921448,804.471619 668.176880,788.809204 
	C668.265442,783.378357 670.994812,780.820251 675.745422,780.959778 
	C680.418518,781.096985 682.285645,783.321167 682.310242,789.001709 
	C682.348511,797.834290 682.313538,806.667236 682.309814,816.000000 
z"/>
<path fill="#000000" opacity="1.000000" stroke="none" 
	d="
M518.877686,903.288208 
	C520.258667,906.217590 524.232544,908.766052 520.660156,911.749329 
	C516.933899,914.861084 514.021912,912.056030 511.394135,909.146362 
	C509.021210,906.518860 507.356781,903.102051 503.920380,901.460205 
	C501.489258,903.533813 501.441010,906.077515 501.388428,908.518005 
	C501.330200,911.220886 500.493469,913.128845 497.493439,913.206299 
	C494.550415,913.282349 492.993408,911.845154 492.515320,908.822571 
	C491.462280,902.165039 492.746002,895.555542 492.689423,888.917358 
	C492.556793,873.358032 490.701965,874.755920 507.225983,874.603943 
	C512.981750,874.551025 517.655762,875.965576 520.542603,881.420410 
	C523.214661,886.469238 522.650024,891.147705 518.936768,895.237366 
	C516.458069,897.967163 516.184448,900.316589 518.877686,903.288208 
M511.725800,887.604065 
	C511.123596,883.895264 508.317230,883.485596 505.366882,883.484192 
	C503.454468,883.483337 502.237396,884.643127 501.940399,886.503174 
	C501.618317,888.520447 501.485199,891.004333 503.982910,891.403748 
	C506.897919,891.869812 510.557098,892.910828 511.725800,887.604065 
z"/>
<path fill="#000000" opacity="1.000000" stroke="none" 
	d="
M548.472412,881.554199 
	C549.747253,879.370483 550.570740,877.246338 552.035767,875.750488 
	C554.247925,873.491760 559.094116,874.249329 560.634338,877.273010 
	C565.462463,886.751221 570.032959,896.362427 574.590149,905.975708 
	C575.837769,908.607544 575.918091,911.309998 572.687805,912.706238 
	C569.761902,913.971008 567.618896,912.696838 565.900085,910.206604 
	C564.724426,908.503296 564.482788,905.671204 561.873413,905.524292 
	C557.744690,905.291992 553.556519,904.883728 549.466248,905.889221 
	C548.069641,906.232483 547.581970,907.620300 546.994629,908.843079 
	C545.500427,911.953674 543.329834,914.380493 539.577332,912.785583 
	C535.350098,910.989014 536.914917,907.509033 538.124512,904.666992 
	C541.380310,897.017273 544.895813,889.478027 548.472412,881.554199 
M556.812317,896.702209 
	C558.491760,893.851257 558.435181,893.658020 555.017700,890.570740 
	C551.949646,895.638184 551.995667,895.887634 556.812317,896.702209 
z"/>
<path fill="#000000" opacity="1.000000" stroke="none" 
	d="
M449.946350,881.473267 
	C450.299316,876.305847 452.711731,874.312500 457.514221,874.600464 
	C462.326050,874.888916 467.168793,874.698181 471.997437,874.655945 
	C474.627075,874.632935 476.826324,875.376038 476.930328,878.333618 
	C477.033417,881.266235 475.182495,882.966919 472.300629,883.189392 
	C469.483582,883.406860 466.644714,883.346924 463.815247,883.397705 
	C461.653687,883.436523 459.596527,883.828308 459.671692,886.543884 
	C459.755554,889.573425 461.928741,889.763733 464.318298,889.506592 
	C465.629669,889.365540 466.970917,889.306824 468.283325,889.408752 
	C471.465973,889.656128 471.794495,892.183533 471.805298,894.504150 
	C471.815765,896.745972 470.481445,898.230469 468.042358,898.302185 
	C466.211945,898.356018 464.379303,898.332703 462.548279,898.371643 
	C460.813812,898.408508 459.729980,899.070862 459.722107,901.047791 
	C459.714081,903.055603 460.795837,903.643433 462.556488,903.643066 
	C465.553650,903.642456 468.551025,903.663269 471.547943,903.700623 
	C474.154510,903.733032 476.134888,904.532288 476.299286,907.594421 
	C476.462189,910.628784 475.033936,912.246277 472.059937,912.682007 
	C466.420898,913.508484 460.755463,913.313538 455.112427,912.974487 
	C450.822052,912.716797 449.779419,909.577209 449.787872,905.900513 
	C449.806244,897.908508 449.865662,889.916626 449.946350,881.473267 
z"/>
<path fill="#000000" opacity="1.000000" stroke="none" 
	d="
M610.291443,874.893860 
	C617.282410,878.044739 620.936340,883.631104 620.072144,889.305725 
	C619.101685,895.677673 614.434753,900.471680 606.976868,900.895569 
	C601.694946,901.195801 599.516602,903.016479 599.554871,908.108154 
	C599.578308,911.221497 598.123474,913.393005 594.736450,913.008606 
	C591.506348,912.641968 590.538635,910.291260 590.563843,907.236694 
	C590.638062,898.251892 590.647339,889.265808 590.580078,880.281006 
	C590.549866,876.248535 592.450684,874.536926 596.395447,874.648254 
	C600.885742,874.775146 605.380310,874.752930 610.291443,874.893860 
M609.460815,886.064758 
	C608.404175,884.085327 606.610535,883.465759 604.523987,883.402039 
	C602.074219,883.327209 599.742004,883.530640 599.440247,886.688416 
	C599.207092,889.127930 599.619080,891.374512 602.323425,892.313477 
	C605.717651,893.491882 608.976135,890.991760 609.460815,886.064758 
z"/>
<path fill="#000000" opacity="1.000000" stroke="none" 
	d="
M662.606262,885.556396 
	C657.341614,891.691833 654.021301,898.072815 654.783020,906.210510 
	C655.031799,908.868591 654.508911,912.281921 650.732361,912.686340 
	C647.513672,913.031128 645.257141,911.061218 645.783997,907.933167 
	C647.350098,898.634766 642.156860,892.109192 637.299927,885.350525 
	C636.425903,884.134338 635.565979,882.896362 634.831970,881.593811 
	C633.702271,879.589111 632.047729,877.458435 634.577087,875.380920 
	C637.071045,873.332397 639.751221,873.910950 641.790527,875.945801 
	C644.131470,878.281372 646.019226,881.068542 648.139282,883.630249 
	C648.652649,884.250549 649.305115,884.755676 650.044128,885.456543 
	C652.786804,883.957825 653.891174,881.233337 655.573730,879.062378 
	C656.693481,877.617615 657.575256,875.988403 659.155640,874.953125 
	C661.246826,873.583496 663.450989,873.901489 665.251526,875.209534 
	C667.193054,876.620056 666.765991,878.780090 665.781250,880.644531 
	C664.930054,882.256226 663.815308,883.728699 662.606262,885.556396 
z"/>
<path fill="#000000" opacity="1.000000" stroke="none" 
	d="
M368.283020,910.133911 
	C367.164001,903.119751 367.672791,896.456055 367.744202,889.819275 
	C367.790985,885.471130 366.463196,883.157043 361.828522,883.338989 
	C358.658661,883.463501 355.983704,882.322876 355.919617,878.757874 
	C355.848022,874.777832 359.005280,874.615417 361.958893,874.615295 
	C369.280060,874.614990 376.601898,874.708191 383.921997,874.629211 
	C386.678436,874.599487 388.585602,875.634827 388.909668,878.365112 
	C389.282440,881.506042 387.023743,883.265259 384.391052,883.146423 
	C378.010529,882.858154 376.915680,886.202515 377.271118,891.566772 
	C377.611420,896.701904 377.303955,901.878113 377.343048,907.035767 
	C377.361542,909.476257 377.203674,911.816833 374.479340,912.791870 
	C371.905853,913.713013 369.970215,912.625244 368.283020,910.133911 
z"/>
<path fill="#000000" opacity="1.000000" stroke="none" 
	d="
M284.453979,894.962524 
	C282.775787,889.973999 283.949615,887.797180 288.529144,887.754700 
	C304.132355,887.610046 319.737671,887.686890 335.342194,887.700684 
	C337.972870,887.703003 340.094055,888.763000 340.090698,891.629456 
	C340.087677,894.183472 338.570007,896.177856 335.814850,896.247986 
	C319.395050,896.666077 302.973724,896.596252 286.557159,896.036316 
	C285.949860,896.015564 285.359070,895.510742 284.453979,894.962524 
z"/>
<path fill="#000000" opacity="1.000000" stroke="none" 
	d="
M686.599854,894.404175 
	C684.937500,889.903870 686.951172,887.802429 690.818665,887.762878 
	C706.315979,887.604187 721.815796,887.671570 737.314636,887.680481 
	C739.899353,887.681946 742.159607,888.543274 742.143250,891.514038 
	C742.127563,894.361877 740.393799,896.269409 737.421631,896.280029 
	C721.763611,896.336060 706.105286,896.293457 690.447021,896.276855 
	C689.048462,896.275391 687.858521,895.727905 686.599854,894.404175 
z"/>
<path fill="#000000" opacity="1.000000" stroke="none" 
	d="
M475.900970,490.823975 
	C474.507355,488.489319 474.792572,486.639984 476.532745,485.133667 
	C478.493591,483.436340 480.665710,483.983459 482.585602,485.124939 
	C488.520386,488.653381 493.446808,493.407745 497.821381,498.664276 
	C502.401398,504.167633 506.502716,510.036591 509.479431,516.618164 
	C510.276337,518.380188 510.839874,520.424988 513.086182,521.158325 
	C515.455933,520.244446 515.853760,517.913452 516.754333,516.071533 
	C521.955505,505.433807 529.224121,496.435791 538.179810,488.767212 
	C539.814941,487.367004 541.611328,486.129272 543.440125,484.987732 
	C545.503174,483.699921 547.547974,483.644440 549.155273,485.824829 
	C550.808899,488.068146 550.684021,490.436249 548.539062,492.044281 
	C527.911438,507.508606 520.258789,529.921387 515.218384,553.774231 
	C514.887451,555.340393 514.780090,557.070190 513.124146,558.337036 
	C510.916962,557.063904 511.144073,554.764343 510.698914,552.760925 
	C506.620819,534.407288 500.759460,516.857666 488.241364,502.236603 
	C484.636658,498.026276 480.219482,494.760803 475.900970,490.823975 
z"/>
</svg>